# xmcd CD database file
#
# Track frame offsets:
#	150
#	15677
#	31058
#	55367
#	60605
#	85877
#	109386
#	126446
#	131775
#	157848
#	173866
#	197294
#	232226
#
# Disc length: 3742 seconds
#
# Revision: 0
# Processed by: cddbd v1.5.1PL0 Copyright (c) Steve Scherf et al.
# Submitted via: CDex 1.51
#
DISCID=af0e9c0d
DTITLE=72 Blues - Said I Would
DYEAR=2005
DGENRE=Blues
TTITLE0=Said I Would
TTITLE1=Supper Is Waiting
TTITLE2=My Name
TTITLE3=That Just Happened
TTITLE4=Way Down
TTITLE5=Southern Fried
TTITLE6=Lay My Burden Down
TTITLE7=Harmonihum
TTITLE8=Lawd, A Lonesome Sorry
TTITLE9=Home
TTITLE10=Gonna Get Fed
TTITLE11=Loneside My Bed
TTITLE12=Not No More
EXTD=YEAR: 2005
EXTT0=
EXTT1=
EXTT2=
EXTT3=
EXTT4=
EXTT5=
EXTT6=
EXTT7=
EXTT8=
EXTT9=
EXTT10=
EXTT11=
EXTT12=
PLAYORDER=
